<?xml version="1.0" encoding="UTF-8"?>
<svg id="Layer_1" xmlns="http://www.w3.org/2000/svg" version="1.1" viewBox="0 0 500 500">
  <!-- Generator: Adobe Illustrator 29.2.1, SVG Export Plug-In . SVG Version: 2.1.0 Build 116)  -->
  <defs>
    <style>
      .st0, .st1 {
        opacity: .6;
      }

      .st2 {
        fill: #263238;
      }

      .st3 {
        fill: #f0f0f0;
      }

      .st4, .st5, .st6, .st7 {
        opacity: .2;
      }

      .st8 {
        opacity: .3;
      }

      .st8, .st9, .st1, .st5, .st10, .st6, .st7 {
        isolation: isolate;
      }

      .st8, .st9, .st6 {
        fill: #fff;
      }

      .st11 {
        fill: #e0e0e0;
      }

      .st12 {
        fill: #e4897b;
      }

      .st9 {
        opacity: .7;
      }

      .st1, .st10, .st7, .st13 {
        fill: #fafafa;
      }

      .st10 {
        opacity: .4;
      }

      .st14 {
        fill: #ebebeb;
      }

      .st15 {
        fill: #de5753;
      }

      .st16 {
        fill: #eceff1;
      }

      .st17 {
        fill: #f5f5f5;
      }

      .st18 {
        fill: #dc897c;
      }
    </style>
  </defs>
  <g id="freepik--background-complete--inject-123">
    <rect class="st14" x="-44.8" y="433" width="594" height=".3"/>
    <rect class="st14" x="450.4" y="454.3" width="39.3" height=".3"/>
    <rect class="st14" x="338.4" y="457.9" width="10.3" height=".3"/>
    <rect class="st14" x="426.4" y="442" width="22.8" height=".3"/>
    <rect class="st14" x="17.5" y="444.2" width="51.3" height=".3"/>
    <rect class="st14" x="79.4" y="444.2" width="7.5" height=".3"/>
    <rect class="st14" x="111.4" y="449.8" width="111.3" height=".3"/>
    <path class="st14" d="M236.8,374H7.4c-3.7,0-6.8-3.4-6.8-7.6V7.5C.6,3.3,3.7,0,7.4,0h229.4c3.7,0,6.8,3.4,6.8,7.6h0v358.9c0,4.2-3,7.6-6.8,7.6ZM7.4.3c-3.6,0-6.5,3.2-6.5,7.2v359c0,4,2.9,7.2,6.5,7.2h229.4c3.6,0,6.5-3.2,6.5-7.2V7.5c0-4-2.9-7.2-6.5-7.2H7.4Z"/>
    <path class="st14" d="M493.8,374h-229.4c-3.7,0-6.8-3.4-6.8-7.6V7.5c0-4.1,3.1-7.5,6.8-7.5h229.4c3.7,0,6.7,3.4,6.8,7.5v359c0,4.2-3,7.5-6.8,7.6ZM264.4.3c-3.6,0-6.5,3.2-6.5,7.2v359c0,4,2.9,7.2,6.5,7.2h229.4c3.6,0,6.5-3.2,6.5-7.2V7.5c0-4-2.9-7.2-6.5-7.2h-229.4Z"/>
    <path class="st3" d="M140.6,329.8l-16.5,15.3,23.5,37.9,18.7-11.6c10,10.7,21.8,19.3,34.7,25.1l-1.9,23.7,40.7,8.4,5.8-22.9c13.9-.4,27.6-3.6,40.4-9.7l13.8,18.3,34.1-26.1-10.5-20.9c9.6-11.2,17.3-24.3,22.6-38.6l21.3,2.1,7.5-45.2-20.6-6.5c-.3-15.5-3.3-30.7-8.7-45l16.5-15.3-23.4-37.9-18.7,11.6c-10-10.7-21.8-19.3-34.7-25.1l1.9-23.7-40.7-8.4-5.8,22.9c-13.9.4-27.6,3.6-40.4,9.7l-13.8-18.4-34.1,26.1,10.4,20.8c-9.6,11.2-17.3,24.3-22.6,38.6l-21.3-2.1-7.5,45.3,20.6,6.5c.3,15.5,3.3,30.8,8.7,45ZM188.1,270.6c5.6-33.8,34.8-56.2,65.2-50,30.4,6.2,50.5,38.8,44.9,72.6-5.6,33.8-34.8,56.2-65.2,50,0,0,0,0,0,0-30.4-6.3-50.5-38.8-44.9-72.6Z"/>
    <path class="st3" d="M412.5,348.9l12.8,2.6,1.9-7.2c4.4-.1,8.7-1.1,12.8-3l4.3,5.8,10.8-8.2-3.3-6.6c3-3.5,5.5-7.7,7.1-12.2l6.7.7,2.4-14.3-6.5-2c-.1-4.9-1-9.7-2.7-14.2l5.2-4.8-7.4-12-5.9,3.7c-3.2-3.4-6.9-6.1-11-7.9l.6-7.5-12.9-2.6-1.9,7.2c-4.4.1-8.7,1.2-12.8,3.1l-4.3-5.8-10.8,8.3,3.3,6.6c-3,3.5-5.5,7.7-7.1,12.2l-6.7-.7-2.4,14.3,6.5,2.1c.1,4.9,1,9.7,2.7,14.2l-5.1,4.8,7.4,12,5.9-3.7c3.2,3.4,6.9,6.1,11,7.9l-.7,7.5ZM409,301.7c1.8-10.7,11-17.8,20.6-15.8,9.6,2,16,12.3,14.2,22.9-1.8,10.7-11,17.8-20.6,15.8-9.6-2-16-12.2-14.2-22.9,0,0,0,0,0,0Z"/>
    <path class="st3" d="M54.1,347.1l9.8,2,1.4-5.5c3.3,0,6.6-.9,9.7-2.3l3.3,4.4,8.2-6.3-2.5-5c2.3-2.7,4.2-5.8,5.4-9.3l5.1.5,1.8-10.9-5-1.6c0-3.7-.8-7.4-2.1-10.8l4-3.7-5.7-9.1-4.5,2.8c-2.4-2.6-5.2-4.6-8.3-6l.5-5.7-9.8-2-1.4,5.5c-3.3,0-6.7.9-9.7,2.3l-3.3-4.4-8.2,6.4,2.5,5c-2.3,2.7-4.2,5.8-5.4,9.3l-5.1-.5-1.8,10.9,5,1.6c0,3.7.8,7.4,2.1,10.8l-4,3.7,5.6,9.1,4.5-2.8c2.4,2.6,5.2,4.6,8.3,6.1l-.4,5.7ZM51.5,311.1c1.4-8.1,8.4-13.5,15.7-12,7.3,1.5,12.1,9.3,10.8,17.5-1.4,8.1-8.4,13.5-15.7,12-7.3-1.5-12.1-9.3-10.8-17.5Z"/>
    <path class="st3" d="M228.9,104.3l7.4,1.5,1.1-4.2c2.5,0,5-.7,7.4-1.8l2.5,3.3,6.2-4.8-1.9-3.8c1.8-2,3.1-4.4,4.1-7l3.9.4,1.4-8.2-3.7-1.2c0-2.8-.6-5.6-1.6-8.2l3-2.8-4.3-6.9-3.4,2.1c-1.8-2-4-3.5-6.3-4.6l.3-4.3-7.4-1.5-1.1,4.2c-2.5,0-5,.7-7.4,1.8l-2.5-3.3-6.2,4.8,1.9,3.8c-1.8,2-3.2,4.4-4.1,7l-3.9-.4-1.3,8.3,3.7,1.2c0,2.8.6,5.6,1.6,8.2l-3,2.8,4.3,6.9,3.4-2.1c1.8,2,4,3.5,6.3,4.6l-.4,4.3ZM226.9,77c1-6.2,6.3-10.2,11.9-9.1,5.5,1.1,9.2,7.1,8.2,13.2-1,6.2-6.3,10.2-11.9,9.1-5.5-1.1-9.2-7.1-8.2-13.2,0,0,0,0,0,0h0Z"/>
    <path class="st3" d="M411.5,188.5l4.9,1,.7-2.8c1.7,0,3.4-.4,4.9-1.2l1.7,2.2,4.1-3.2-1.3-2.5c1.2-1.4,2.1-2.9,2.7-4.7l2.6.3.9-5.5-2.5-.8c0-1.9-.4-3.7-1.1-5.5l2-1.9-2.9-4.6-2.3,1.4c-1.2-1.3-2.7-2.3-4.2-3l.2-2.9-4.9-1-.7,2.8c-1.7,0-3.4.4-4.9,1.2l-1.7-2.2-4.1,3.2,1.3,2.5c-1.2,1.4-2.1,3-2.7,4.7l-2.6-.3-.9,5.5,2.5.8c0,1.9.4,3.7,1.1,5.5l-2,1.9,2.9,4.6,2.3-1.4c1.2,1.3,2.7,2.3,4.2,3.1l-.2,2.9ZM410.2,170.3c.7-4.1,4.2-6.8,7.9-6.1,3.7.8,6.1,4.7,5.5,8.8s-4.2,6.8-7.9,6.1c0,0,0,0,0,0-3.7-.8-6.1-4.7-5.5-8.8Z"/>
    <path class="st3" d="M351.2,370.8c0,3.3.7,6.5,1.8,9.5l-3.4,3.2,5,8,4-2.5c2.1,2.3,4.6,4.1,7.4,5.3l-.4,5,8.6,1.8,1.2-4.9c2.9,0,5.9-.8,8.6-2l2.9,3.9,7.2-5.5-2.2-4.4c2-2.4,3.6-5.1,4.8-8.2l4.5.4,1.6-9.6-4.4-1.3c0-3.3-.7-6.5-1.8-9.5l3.5-3.2-5-8-4,2.5c-2.1-2.3-4.6-4.1-7.3-5.3l.4-5-8.6-1.8-1.2,4.9c-2.9,0-5.9.8-8.6,2l-2.9-3.9-7.2,5.5,2.2,4.4c-2,2.4-3.6,5.2-4.8,8.2l-4.5-.4-1.6,9.6,4.3,1.4ZM363.1,367.8c1.2-7.2,7.4-11.9,13.8-10.6,6.5,1.3,10.7,8.2,9.5,15.4-1.2,7.2-7.4,11.9-13.8,10.6,0,0,0,0,0,0-6.4-1.3-10.7-8.2-9.5-15.4h0Z"/>
    <path class="st11" d="M135.9,195.4c1.1,6-5.4,12.4-14.5,14.5-9.1,2-17.3-1.2-18.4-7.1s5.4-12.5,14.5-14.5c9.1-2.1,17.3,1.2,18.4,7.2Z"/>
    <path class="st14" d="M139.4,174c.7-1.1,1-2.5.8-3.9-1.1-5.9-13.1-8.1-26.9-5-13.8,3.1-24.1,10.4-23.1,16.2.3,1.3,1.1,2.5,2.1,3.2-.2.6-.2,1.3,0,2,.3,1.3,1.1,2.5,2.1,3.2-.2.7-.2,1.3-.1,2,.3,1.3,1.1,2.5,2.2,3.1-.2.7-.3,1.4-.1,2,.3,1.3,1.1,2.5,2.2,3.1-.2.7-.3,1.4-.2,2.1.9,4.9,10.9,6.7,22.4,4.1,11.5-2.6,20.1-8.6,19.2-13.5-.1-.7-.5-1.3-.9-1.9.8-1.1,1.1-2.4,1-3.8-.1-.7-.4-1.3-.8-1.8.8-1.1,1.1-2.5.9-3.8-.1-.7-.4-1.3-.8-1.8.7-1.1,1-2.5.9-3.8-.1-.6-.4-1.3-.8-1.8Z"/>
    <path class="st17" d="M150.7,117.3c-4.8-27.2-28.6-44.9-53.1-39.5-24.5,5.4-40.4,31.8-35.5,59.1,2.6,14.9,11.2,27.6,23.2,34.7,2.2,1.3,3.7,3.7,4,6.4v.4c1.1,6,13.3,8.2,27.3,5.1,14-3.1,24.5-10.6,23.4-16.5,0-.1,0-.3,0-.4-.7-2.7-.1-5.5,1.5-7.7,8.5-11.6,11.9-26.9,9.3-41.6Z"/>
    <path class="st11" d="M123,173.7h-.1c-.3,0-.6-.2-.6-.6,0-1-1.1-23.1,7.4-33.7l-6.6,1.5c-.2,0-.4,0-.5-.3l-3.3-5.3-2.9,12.8c0,.2-.2.4-.4.4-.2,0-.4,0-.5-.2l-7.1-10.6-3.1,11.4c0,.2-.2.4-.4.4-.2,0-.4,0-.5-.2l-6.8-9.2-1.2,6.3c0,.2-.2.4-.4.5l-7.1,1.6c3.6,2.8,15,12.9,17.7,28.1,0,.3-.1.6-.4.7-.3,0-.6-.1-.6-.5h0c-3.2-17.5-18.2-28.1-18.3-28.1-.3-.2-.3-.6-.2-.8,0-.1.2-.2.4-.3l8-1.8,1.3-7.2c0-.2.2-.4.4-.5h0c.2,0,.4,0,.5.2l6.9,9.2,3.2-11.4c0-.3.4-.5.7-.4.1,0,.2.1.3.2l7.1,10.6,2.9-12.8c0-.2.2-.4.4-.4.2,0,.4,0,.5.3l3.7,6,8-1.8c.2,0,.5,0,.6.3.1.2,0,.5-.1.7-9.6,9.5-8.4,33.9-8.4,34.2,0,.3-.2.5-.4.6Z"/>
  </g>
  <g id="freepik--Shadow--inject-123">
    <ellipse id="freepik--path--inject-123" class="st17" cx="252.2" cy="477.8" rx="230.3" ry="15"/>
  </g>
  <g id="freepik--speech-bubble--inject-123">
    <path class="st16" d="M394,126.4c0-7.7-3.6-14.7-9.5-19.8.2-1,.3-2.1.3-3.1,0-10.3-9.4-18.7-21.1-18.9-3.6-10-14.2-17.2-26.7-17.2s-18.8,4.6-23.8,11.5c-1.3-.2-2.5-.3-3.8-.3-12,0-21.6,8.5-21.6,19,0,1.8.3,3.5.8,5.2-7.6,4.5-12.6,12-12.6,20.7s4.7,15.6,11.8,20.2v.3c0,10.2,9.1,18.5,20.6,18.9,6.3,6.9,16,11.3,26.9,11.3,7.1,0,14.2-1.9,20.4-5.8,1,.1,2,.2,2.9.2,12,0,21.6-8.5,21.6-19v-.2c8.4-5,13.8-13.4,13.8-22.9Z"/>
    <path class="st16" d="M275,182.1c0,1.7-1.8,3.1-4,3.1s-4-1.4-4-3.1,1.8-3.1,4-3.1,4,1.4,4,3.1Z"/>
    <path class="st16" d="M302.9,174.6c0,5-5.2,9.1-11.7,9.1s-11.7-4-11.7-9.1,5.2-9.1,11.7-9.1,11.7,4.1,11.7,9.1Z"/>
    <path class="st9" d="M394,126.4c0-7.7-3.6-14.7-9.5-19.8.2-1,.3-2.1.3-3.1,0-10.3-9.4-18.7-21.1-18.9-3.6-10-14.2-17.2-26.7-17.2s-18.8,4.6-23.8,11.5c-1.3-.2-2.5-.3-3.8-.3-12,0-21.6,8.5-21.6,19,0,1.8.3,3.5.8,5.2-7.6,4.5-12.6,12-12.6,20.7s4.7,15.6,11.8,20.2v.3c0,10.2,9.1,18.5,20.6,18.9,6.3,6.9,16,11.3,26.9,11.3,7.1,0,14.2-1.9,20.4-5.8,1,.1,2,.2,2.9.2,12,0,21.6-8.5,21.6-19v-.2c8.4-5,13.8-13.4,13.8-22.9Z"/>
    <path class="st9" d="M275,182.1c0,1.7-1.8,3.1-4,3.1s-4-1.4-4-3.1,1.8-3.1,4-3.1,4,1.4,4,3.1Z"/>
    <path class="st9" d="M302.9,174.6c0,5-5.2,9.1-11.7,9.1s-11.7-4-11.7-9.1,5.2-9.1,11.7-9.1,11.7,4.1,11.7,9.1Z"/>
  </g>
  <g id="freepik--Symbol--inject-123">
    <path class="st16" d="M335.6,86.5c11.6,0,18.7,6,18.7,16.8s-13.3,16.4-13.3,27.6h-11.5c0-14.8,10.6-15.6,10.6-24.9s-2.2-5.9-6-5.9-6.5,2.8-6.6,8.5h-11.8c0-14.1,7.5-22.3,19.8-22.3ZM342.5,146.5c0,4.5-3.3,8.2-7.4,8.2s-7.4-3.7-7.4-8.2,3.3-8.2,7.4-8.2,7.4,3.7,7.4,8.2Z"/>
  </g>
  <g id="freepik--Plant--inject-123">
    <path class="st16" d="M76.6,394.9s-7.8-10.3-12.7-5.5c-5,4.8-2.5,15,3.3,15.3,3.4.2,6.8-.9,9.5-3.2v-6.6Z"/>
    <path class="st6" d="M76.6,394.9s-7.8-10.3-12.7-5.5c-5,4.8-2.5,15,3.3,15.3,3.4.2,6.8-.9,9.5-3.2v-6.6Z"/>
    <path class="st16" d="M108.2,368.8s6.5-7.6,10.5-6.3c4,1.3,3.6,19.4-8.9,12.1l-1.7-5.8Z"/>
    <path class="st8" d="M108.2,368.8s6.5-7.6,10.5-6.3c4,1.3,3.6,19.4-8.9,12.1l-1.7-5.8Z"/>
    <path class="st16" d="M85,425.5s-21.4-32.6-4-39.2,20.5,26.2,15.4,35.4c-5,9.1-11.4,3.8-11.4,3.8Z"/>
    <path class="st16" d="M94.9,358.8s13.3-34.3-6.4-35.4c-19.7-1-21.8,34,.8,39.1l5.6-3.8Z"/>
    <path class="st8" d="M85,425.5s-21.4-32.6-4-39.2,20.5,26.2,15.4,35.4c-5,9.1-11.4,3.8-11.4,3.8Z"/>
    <path class="st8" d="M94.9,358.8s13.3-34.3-6.4-35.4c-19.7-1-21.8,34,.8,39.1l5.6-3.8Z"/>
    <path class="st16" d="M90.2,386.9s-6.5-30.3,5.9-32.7c12.4-2.4,24.7,25-1,38.7,0,0-4.4-3-4.9-6Z"/>
    <path class="st6" d="M90.2,386.9s-6.5-30.3,5.9-32.7c12.4-2.4,24.7,25-1,38.7,0,0-4.4-3-4.9-6Z"/>
    <path class="st16" d="M88.3,356.3c-7.4-6-12.5-17.7-8.2-27.5-.2.9-.4,1.9-.6,2.8-1.5,9.3,3.1,18.2,8.8,24.7Z"/>
    <path class="st16" d="M83.5,326.9c8.5,1.8,12.3,12.1,11.3,20.9-.2,1.2-.4,2.5-.6,3.7.1-2.5,0-5,0-7.5-.5-7.3-4.1-14.5-10.7-17.2h0Z"/>
    <path class="st16" d="M98.6,356.3c5.2,2,8.2,8.6,7.8,14.5-.4,4.3-2.6,8.2-5,11.5-2,2.6-4.2,5-6.6,7,1.1-1.2,2.2-2.4,3.1-3.7,2.9-3.7,5.9-7.8,7.1-12.6,1.6-6.6-1-13.6-6.3-16.9h0Z"/>
    <path class="st16" d="M94.9,358.8c1.3,4.4,2.4,9.7.3,14.1-1.7,2.8-1.9,6.5-2,9.9,0,1.2,0,2.3,0,3.5-.5-2.3-.7-4.7-.7-7.1,0-2.5.6-4.9,1.7-7,1.9-4.1,1-9.1.5-13.5Z"/>
    <path class="st16" d="M86.2,389.4c5,3,7,21.9,6.8,28.1-.2-1.2-.3-2.4-.5-3.7-1-6.1-1.9-12.1-3.4-18.1-.7-2.2-1.1-4.9-2.9-6.4Z"/>
    <path class="st16" d="M80.1,390.5c-2.5,8.9-.6,18.5,4.9,25.5-.8-.8-1.5-1.6-2.2-2.4-4.9-6.4-6-15.5-2.6-23.1h0Z"/>
    <path class="st16" d="M113.2,372.5c2.2-.4,4.3-1.5,5.9-3.2-.4,2.8-3.6,4.2-5.9,3.2Z"/>
    <path class="st16" d="M111.9,367.5c1.1-2.4,4.8-4,6.3-1.3-2.2-1.1-4.3.3-6.3,1.3Z"/>
    <path class="st16" d="M73,396.4c-2.5-2-5.1-5.3-8.3-3.6,2.6-3.5,7.1.4,8.3,3.6Z"/>
    <path class="st16" d="M73,401.5c-3.3,1.3-9.7,1.5-10.2-3.7,1.9,4.2,6.7,3.2,10.2,3.7Z"/>
    <polygon class="st2" points="58.5 412.1 125 412.1 119.4 459.4 64 459.4 58.5 412.1"/>
    <g class="st4">
      <polygon class="st13" points="125 412.1 123 428.6 122.9 429.7 121.8 439.1 121.5 441.5 120.7 448.5 120 454.1 119.4 459.4 64 459.4 63.4 454.1 62.7 448.5 61.9 441.5 61.6 439.1 60.5 429.7 60.4 428.6 58.5 412.1 125 412.1"/>
    </g>
    <polygon class="st7" points="120.7 448.5 120 454.1 63.4 454.1 62.7 448.5 120.7 448.5"/>
    <polygon class="st7" points="121.8 439.1 121.5 441.5 61.9 441.5 61.6 439.1 121.8 439.1"/>
    <polygon class="st7" points="123 428.6 122.9 429.7 60.5 429.7 60.4 428.6 123 428.6"/>
  </g>
  <g id="freepik--Lamp--inject-123">
    <rect class="st2" x="396.5" y="388.7" width="13.9" height="31.6"/>
    <path class="st2" d="M442.6,439.1c0-11-7.6-20.6-18.9-25.9v-6.7h-40.7v6.7c-11.3,5.3-18.9,14.9-18.9,25.9,0,5.1,1.7,10.1,4.5,14.2h0v5.6h69.4v-5.6c2.9-4,4.5-9,4.5-14.2Z"/>
    <path class="st1" d="M442.6,439.1c0-11-7.6-20.6-18.9-25.9v-6.7h-40.7v6.7c-11.3,5.3-18.9,14.9-18.9,25.9,0,5.1,1.7,10.1,4.5,14.2h0v5.6h69.4v-5.6c2.9-4,4.5-9,4.5-14.2Z"/>
    <path class="st2" d="M424.8,412.9h-42.7c-1.3,0-2.4-1.2-2.4-2.7v-73.5h1.2v73.5c0,.7.5,1.4,1.1,1.4,0,0,0,0,.1,0h42.7c.7,0,1.2-.6,1.2-1.3,0,0,0,0,0,0v-73.5h1.2v73.5c0,1.5-1.1,2.7-2.4,2.7Z"/>
    <polygon class="st16" points="445 397.8 361.9 397.8 380.1 319.2 426.7 319.2 445 397.8"/>
    <rect class="st5" x="368.7" y="453.2" width="69.4" height="5.6"/>
    <rect class="st5" x="383.1" y="406.5" width="40.7" height="6.7"/>
    <polygon class="st1" points="445 397.8 361.9 397.8 380.1 319.2 426.7 319.2 445 397.8"/>
  </g>
  <g id="freepik--Character--inject-123">
    <path class="st18" d="M274.7,284.1c10.5,15.2,21.8,31.2,35.3,42.8,2.4,2.1,5.1,3.7,8,4.8.2,0,0,.2-.2.4s-.1.2-.1.3-.4.4-.5.5c-1.2,1.3-2,3-2.1,4.9,0,.4,0,.3,0,.1-.7-6.1-4-12.1-6.8-17.7-11.3-21.3-25.6-41.3-39.3-61.1l10.7-11.7c12,11.4,23.4,23.7,34,36.7,8.2,10.2,16.2,20.9,22.4,33.2,6.2,11.8,9.8,28.4-1.1,38.8-4.9,4.5-11,7-17.3,7-20.8-.3-39.8-22.1-52.5-37.8-5.4-6.9-10.5-14.1-15.2-21.7l24.8-19.3h0Z"/>
    <path class="st12" d="M244.5,233.3l12.5-.7c1.4,0,2.8.3,3.9,1.2l19.4,14-3.2,15.1c-12.1,8.5-22.4.7-25.6-2.2-.7-.7-1.6-1.2-2.5-1.4l-6.9-2c-3.2-.9-5.3-4.3-4.9-7.9l.9-9.3c.3-3.7,3-6.5,6.3-6.7Z"/>
    <path class="st16" d="M311.5,326.8l-12.6,44.6s-1.4-.8-3.7-2.3c-6.1-3.8-18.4-11.8-27.4-19.7-5.3-4.6-9.5-9.1-10.7-12.8-4.2-12.4,20.9-56.5,20.9-56.5,7.9,2.2,17.5,18.1,17.5,18.1,0,0,13,20.5,16.1,28.6Z"/>
    <path class="st5" d="M295.2,369.2c-6.1-3.8-18.4-11.8-27.4-19.7-.2-6.3.2-12.6,1.3-18.8,0,0,20.2,12.7,26.1,38.4Z"/>
    <path class="st2" d="M278,280.2s24.3,69.8.8,199.6l-110.9-.3c-.7-19,7-107.7-9.2-197.1,0,0,4.6-6.2,40.3-8.8,14.2-1,34.7-1.2,47.2.1,10.8,1.2,21.4,3.4,31.9,6.5Z"/>
    <path class="st1" d="M288.8,388.3c-.2,4.7-.4,9.6-.7,14.5-.2,4.1-.5,8.2-.9,12.5-.4,5.1-.9,10.3-1.5,15.7-.5,4.4-1,8.9-1.5,13.4-.7,5.5-1.5,11.1-2.4,16.8-.9,6-1.9,12.2-3.1,18.5l-110.9-.3c-.2-4.1,0-11.6.4-21.6.1-4,.3-8.4.4-13.2,0-3.5.2-7.2.2-11,0-4.3.1-8.8.2-13.5v-11.3c0-4.5,0-9.2-.2-13.9,0-3.5-.1-7.1-.2-10.8-.4-13-1.1-26.8-2.3-41.1-1.6-20.3-4.2-40.5-7.8-60.5,0,0,4.6-6.2,40.4-8.8,14.2-1,34.7-1.2,47.2.1,10.8,1.2,21.4,3.4,31.9,6.5,0,0,13,37.3,10.8,108.1Z"/>
    <path class="st5" d="M180.2,337.3s-1,29.5-11.6,46.8c-.4-13-1.1-26.8-2.3-41.1,4.3-3.7,9.1-5.9,13.8-5.7Z"/>
    <g class="st0">
      <path class="st13" d="M288.8,388.3c-.2,4.7-.4,9.6-.7,14.5l-11.6,15.3-16.7-21.9-16.7,21.9-16.7-21.9-16.7,21.9-16.7-21.9-16.7,21.9-7.1-9.4c0-4.5,0-9.2-.2-13.9l7.3,9.6,16.7-21.9,16.7,21.9,16.7-21.9,16.7,21.9,16.7-21.9,16.7,21.9,12.3-16.1Z"/>
    </g>
    <g class="st0">
      <path class="st13" d="M287.3,415.4c-.4,5.1-.9,10.3-1.5,15.7l-9.3,12.2-16.7-21.9-16.7,21.9-16.7-21.9-16.7,21.9-16.7-21.9-16.7,21.9-7.4-9.6c0-4.3.1-8.8.2-13.5l7.2,9.4,16.7-21.9,16.7,21.9,16.7-21.9,16.7,21.9,16.7-21.9,16.7,21.9,10.8-14.1Z"/>
    </g>
    <g class="st0">
      <path class="st13" d="M284.3,444.4c-.7,5.5-1.5,11.1-2.4,16.8l-5.4,7.1-16.7-21.9-16.7,21.9-16.7-21.9-16.7,21.9-16.7-21.9-16.7,21.9-8-10.5c.1-4,.3-8.4.4-13.2l7.6,10,16.7-21.9,16.7,21.9,16.7-21.9,16.7,21.9,16.7-21.9,16.7,21.9,7.8-10.2Z"/>
    </g>
    <path class="st12" d="M197.6,219.1c4.4,16.5,9.9,47,.3,59.3,15.1,5.3,25.9,8.9,39.2,19.8,3.5-10.8,7.8-24.8,7.8-24.8-17.2-2.7-18-16.7-16.1-30l-31.1-24.4Z"/>
    <path class="st5" d="M210.2,229l18.4,14.4c-.5,3.1-.7,6.3-.7,9.4-6.5-.4-16-7.3-17.3-14.7-.6-3-.8-6.1-.4-9.1Z"/>
    <polygon class="st16" points="184.9 274.8 195.6 263.7 224 274.6 236.5 295.9 241.1 274.3 247.6 267.8 258.9 275.5 257.1 289.2 249 284.7 239.1 302.7 217.1 288.3 211 294.9 184.9 274.8"/>
    <polygon class="st5" points="239.1 302.7 244.9 280.3 257.1 289.2 249 284.7 239.1 302.7"/>
    <polygon class="st5" points="239.1 302.7 219.7 281.5 211 294.9 217.1 288.3 239.1 302.7"/>
    <path class="st18" d="M192.2,318.1c7.1,9.6,16.9,22.8,24.1,32,8.6,10.7,17.2,22,27.6,30.2.4.3,0,0-.3,0-.1,0-.2,0-.3,0,0,0,0,0,0,0,4.7,1.2,9.9,0,14.9-.8,15.2-2.9,30.2-7.7,45.5-12l6,15.3c-5.8,4-11.5,7.3-17.5,10.6-15,7.8-42.3,22-58.9,15-6.1-3.2-11.8-7.2-17-12.1-7.9-7.3-15.3-15.2-22.3-23.5-6.9-8.1-13.3-16.4-19.6-25-2.1-2.9-4.1-5.7-6.2-8.8l23.9-20.7h0Z"/>
    <path class="st16" d="M148.8,297.7c-12.2,42.9,42.4,84.9,42.4,84.9l29.2-36.9s-12.9-26.5-27.4-50c-15.2-24.6-37.8-20.5-44.2,2Z"/>
    <path class="st12" d="M301.3,369.3l20.5-23.7,15.5,23s-12.2,18.9-28.9,14l-7.1-13.3Z"/>
    <polygon class="st12" points="341.9 338.3 349.7 358.6 337.4 368.6 321.9 345.6 341.9 338.3"/>
    <path class="st2" d="M237.2,157.7c10.6,4.6,17.8,36.7,5,44.4-12.8,7.7-25-53.1-5-44.4Z"/>
    <path class="st12" d="M191.6,195.4c5.5,22.5,7.7,35.8,20.2,45.5,18.8,14.5,42.2-.7,42.9-24.2.6-21.2-8.4-54.3-30.2-59.5-21.4-5.1-38.3,15.8-32.9,38.2Z"/>
    <path class="st2" d="M209.7,166.5l-2.2-19.7c-4.4,2.6-9.4,3.7-14.3,3-21.4-4.1-36.6,12-26.1,24.5-9.7,5.5-3.4,20.2,3.8,29.5,10,12.8,20.2,18.5,26.6,11.9,5.9-3.7,5.6-27.2,3.1-35.7-3.8-12.9,9.1-13.4,9.1-13.4Z"/>
    <path class="st12" d="M188.1,219.4c3.5,4.2,8.2,7,13.3,7.8,6.5.9,7.6-5.9,4.1-12.1-3.2-5.6-10.4-12.8-16.1-10.8s-5.7,9.7-1.3,15Z"/>
    <path class="st2" d="M222.6,195.9c.3,1.8,1.5,3.2,2.6,3s1.7-1.9,1.4-3.7-1.5-3.2-2.6-3-1.7,1.9-1.4,3.7Z"/>
    <path class="st2" d="M241.4,192.3c.3,1.9,1.5,3.2,2.6,3s1.7-1.9,1.4-3.7-1.5-3.2-2.6-3-1.7,1.9-1.4,3.7Z"/>
    <path class="st15" d="M237,194.3s5.8,9.9,10.9,14.3c-2.4,3.6-7.7,3.2-7.7,3.2l-3.2-17.4Z"/>
    <path class="st2" d="M228.6,186.2c.2,0,.3.2.4.3.3.5.3,1.2-.2,1.6,0,0,0,0,0,0-2.5,2.2-5.8,3-8.8,1.9-.5-.2-.8-.8-.6-1.4,0,0,0,0,0,0,.2-.6.8-.9,1.3-.7,2.4.8,5,.2,6.9-1.6.3-.3.7-.3,1-.1Z"/>
    <path class="st2" d="M246.9,182.2c-.3,0-.7,0-.9-.2-1.9-2-4.5-2.8-7-2.4-.5.2-1.1,0-1.3-.7-.2-.6,0-1.2.6-1.4,0,0,.1,0,.2,0h0c3.2-.6,6.4.4,8.8,2.9.4.4.5,1.1,0,1.6-.1.2-.3.3-.5.3Z"/>
    <path class="st2" d="M192,152.4s14.8-31.7,42.2-25.2c0,0-5.3,1.3-7.5,3.5,0,0,24-2.3,31.4,16.4l-4.6-3s6.1,15.5-1,25.8l-1.3-5.1s-9.8,13.6-24.5,9.7l5.1-2.9s-25.2-.9-31.5-8-8.3-11.2-8.3-11.2Z"/>
    <path class="st2" d="M242.7,221.5c-.2,0-.4-.1-.6-.3-3.7-4.5-10.2-2.8-10.3-2.8-.4,0-.8-.3-.9-.8,0-.4.2-.8.5-1,.3,0,7.5-2,11.9,3.3.3.3.3.9,0,1.3-.2.2-.4.3-.6.2Z"/>
  </g>
  <g id="freepik--Table--inject-123">
    <rect class="st16" x="46.5" y="458.8" width="402.7" height="20.9"/>
    <rect class="st7" x="46.5" y="458.8" width="402.7" height="20.9"/>
    <path class="st16" d="M455.2,458.8H41.6c-2.6,0-4.7,2.3-4.8,5.2h0c0,2.9,2.2,5.2,4.8,5.2h413.6c2.6,0,4.7-2.4,4.7-5.2h0c0-2.9-2.1-5.2-4.7-5.2Z"/>
    <path class="st10" d="M455.2,458.8H41.6c-2.6,0-4.7,2.3-4.8,5.2h0c0,2.9,2.2,5.2,4.8,5.2h413.6c2.6,0,4.7-2.4,4.7-5.2h0c0-2.9-2.1-5.2-4.7-5.2Z"/>
  </g>
</svg>